<?xml version="1.0" encoding="UTF-8" standalone="no"?>
<svg
   width="297mm"
   height="420mm"
   version="1.1"
   id="svg1801"
   sodipodi:docname="blue_layer_resized.svg"
   inkscape:version="1.2.2 (b0a8486541, 2022-12-01)"
   viewBox="0 0 297 420"
   xmlns:inkscape="http://www.inkscape.org/namespaces/inkscape"
   xmlns:sodipodi="http://sodipodi.sourceforge.net/DTD/sodipodi-0.dtd"
   xmlns="http://www.w3.org/2000/svg"
   xmlns:svg="http://www.w3.org/2000/svg">
  <defs
     id="defs1805" />
  <sodipodi:namedview
     id="namedview1803"
     pagecolor="#ffffff"
     bordercolor="#000000"
     borderopacity="0.25"
     inkscape:showpageshadow="2"
     inkscape:pageopacity="0.0"
     inkscape:pagecheckerboard="0"
     inkscape:deskcolor="#d1d1d1"
     showgrid="false"
     inkscape:zoom="0.70710678"
     inkscape:cx="274.35743"
     inkscape:cy="710.64232"
     inkscape:window-width="1916"
     inkscape:window-height="1036"
     inkscape:window-x="0"
     inkscape:window-y="42"
     inkscape:window-maximized="1"
     inkscape:current-layer="svg1801"
     showguides="true"
     inkscape:document-units="mm" />
  <!--Created with DrawingBotV3 Free Version: 1.6.25 Stable 
Date: 2025-10-22 at 17:37:45 CEST  
Shapes: 898  
Total Travel: 235.09 m 
Distance Down: 223.51 m 
Distance Up: 11.58 m 
Pen Lifts: 897 
Page Size: 768.0 px x 1024.0 px 
Drawing Size: 767.0 px x 980.0 px 

Pens:
 Pen 1: 100 Black - 223.51 m 
-->
  <g
     id="g103196"
     style="display:inline"
     inkscape:label="blue"
     transform="matrix(0.30037502,0,0,0.31144533,31.741,36.351443)">
    <g
       style="display:inline;fill:#312b2b;stroke:#312b2b;stroke-linecap:round;stroke-linejoin:round"
       id="g103194">
      <path
         id="path101990"
         style="fill:none"
         d="m 207.92773,587.18555 c 0.42059,0.31231 0.80456,0.63646 1.15235,0.9707 l 0.3418,0.18945 c 0.4289,0.0551 0.85754,0.11172 1.2871,0.16211 1.27459,0.14579 2.55671,0.21619 3.8379,0.27149 0.53888,0.0113 1.07604,0.0281 1.61328,0.0527 z" />
      <path
         id="path102000"
         style="fill:none"
         d="m 241,587 v 2 l -2,4 0.31445,0.47266 c 0.85561,0.3262 1.60698,0.7223 2.26367,1.16992 1.61318,0.24076 3.0025,0.67165 4.17383,1.23828 L 244,588 Z m 8,5 -2.30859,3.84766 c 0.47367,-0.34609 0.94153,-0.69984 1.38671,-1.08399 0.12583,-0.10855 0.25155,-0.20895 0.37696,-0.3125 z" />
      <path
         id="path102020"
         style="fill:none"
         d="m 242.73438,574.4043 c -1.31109,0.31482 -2.53223,0.47712 -3.66016,0.51172 -0.11494,0.0865 -0.22196,0.17683 -0.34375,0.25976 L 236,582 h -2 v 5.19922 L 226,584 l 3.83398,8.43555 c 1.18889,0.009 2.37776,0.0212 3.56641,0.0293 3.55979,0.0243 6.27663,0.88325 8.17578,2.17774 1.8617,0.27765 3.41461,0.8159 4.68945,1.51562 0.62173,-0.44139 1.23421,-0.89538 1.8125,-1.39453 0.57567,-0.49666 1.14768,-0.93813 1.7129,-1.33203 0.29206,-1.08653 0.7484,-2.23646 1.43945,-3.45703 0.20651,-0.36471 0.13226,-0.86016 0.2832,-1.23242 0.23519,-1.15855 0.50565,-2.50921 0.73438,-3.56055 0.1274,-0.58561 0.27851,-1.13561 0.43945,-1.66992 -0.29339,-1.16982 -0.48309,-2.47429 -0.5332,-3.92969 -0.0304,-0.88559 -0.0139,-0.43344 -0.0508,-1.35742 -0.002,-0.0429 -0.004,-0.086 -0.006,-0.12891 -1.29114,-0.30824 -2.66883,-0.80911 -4.12696,-1.5625 -0.74629,-0.3856 -0.34897,-0.18667 -1.19531,-0.59375 -0.25879,-0.11946 -0.51713,-0.24033 -0.77539,-0.36133 V 578 l -3,-2 z" />
      <path
         id="path102024"
         style="fill:none"
         d="M 207.26758,572.73242 205,575 h 6 l 8,2 2.05078,-0.55859 -1.77344,-1.41993 c -0.35108,-0.0164 -0.70349,-0.033 -1.07031,-0.0684 -1.89224,-0.1825 -3.75979,-0.5531 -5.61133,-0.9746 -0.36729,-0.0885 -0.73068,-0.19114 -1.09179,-0.29883 -1.60171,-0.16637 -3.01811,-0.49047 -4.23633,-0.94727 z m 13.7832,3.70899 L 223,578 l 3.23633,-0.92383 c -1.36474,-0.22393 -2.56253,-0.59158 -3.5918,-1.06836 z m 21.36914,-1.9668 c -1.1874,0.26604 -2.30055,0.40891 -3.33398,0.44141 -1.04764,0.78875 -2.37811,1.43448 -3.99414,1.85742 L 236,577 h 6 z m -21.44726,0.56055 c -0.20966,0.009 -0.4302,0.004 -0.64649,0.006 l 0.78516,0.0977 c -0.0484,-0.0334 -0.0914,-0.0695 -0.13867,-0.10351 z" />
      <path
         id="path102026"
         style="fill:none"
         d="M 221.83203,575.58984 214,578 l 2.90039,10.87305 c 0.40953,0.0276 0.8196,0.0614 1.22852,0.10937 2.98097,0.34946 5.29616,1.23704 6.99218,2.41602 L 226,587 l -2,-1 2,-3 h 2 l -1.77734,-5.92578 c -1.73504,-0.28613 -3.19869,-0.80491 -4.39063,-1.48438 z" />
      <path
         id="path102028"
         style="fill:none"
         d="m 248,592 -4.39258,3.07422 c 1.00058,0.28236 1.88382,0.65094 2.66406,1.08008 0.22987,-0.16325 0.45785,-0.32931 0.6836,-0.49805 z" />
      <path
         id="path102030"
         style="fill:none"
         d="m 201.60742,568.66406 c -0.26125,0.0599 -0.52389,0.1101 -0.78711,0.15625 L 202,570 l 0.84961,-0.2832 c -0.14318,-0.17841 -0.27265,-0.36017 -0.39453,-0.54492 -0.28392,-0.19221 -0.57082,-0.36204 -0.84766,-0.50782 z m 14.04102,5.9336 L 225,590 l -0.41992,1.04883 c 0.67699,0.41417 1.27647,0.86732 1.78125,1.35742 2.34598,0.0257 4.69301,0.0426 7.03906,0.0586 0.74119,0.005 1.43441,0.0575 2.10352,0.13086 L 239,587 v -2.66602 L 240,584 v -8 h -2.73633 c -1.76659,0.82161 -4.02704,1.32422 -6.78515,1.32422 h -1.06446 c -3.7166,0 -6.52951,-0.91062 -8.44531,-2.28906 -0.86505,0.0355 -1.78442,0.0123 -2.76172,-0.082 -0.85805,-0.0828 -1.70988,-0.20816 -2.55859,-0.35546 z" />
      <path
         id="path102054"
         style="fill:none"
         d="m 199,570 -4,2 6,-1 h 3.14258 c -0.39135,-0.31513 -0.73479,-0.65162 -1.04297,-1 z m 8.28125,2.73828 L 210,576 h 3 l 3.69531,-1.23242 C 215.35115,574.57215 214.01782,574.30011 212.69336,574 H 209 l 0.60156,-0.60156 c -0.83909,-0.17204 -1.61109,-0.39511 -2.32031,-0.66016 z m 36.43945,1.79883 0.10547,0.875 L 245,576 l -0.10352,-0.93555 c -0.38985,-0.17974 -0.78177,-0.35733 -1.17578,-0.52734 z m 0.10547,0.875 L 243,575 l -7,9 -13.15039,6.13672 L 220,588 h -6 l -10,-3 0.14648,0.14648 c 2.19263,0.84848 3.84519,1.95398 5.06055,3.17188 0.50056,0.0644 1.00068,0.13065 1.50195,0.18945 1.27459,0.14579 2.55671,0.21619 3.8379,0.27149 1.19763,0.0252 2.39107,0.0635 3.58203,0.20312 3.75788,0.44056 6.46726,1.73232 8.19531,3.39258 L 227,589 l 4,-1 0.63672,4.45117 c 0.5879,0.004 1.17586,0.01 1.76367,0.0137 2.52906,0.0173 4.62984,0.45887 6.32031,1.17383 l 1.41211,-0.70508 -0.29492,1.25391 c 0.24791,0.13912 0.46254,0.29538 0.6875,0.44727 1.88372,0.27556 3.46861,0.80661 4.75391,1.51367 0.0152,-0.0108 0.0298,-0.0224 0.0449,-0.0332 l -0.82227,-6.8125 L 246,590 v -2 l -0.74414,-0.74414 z M 218.51367,574.97266 217,578 h 5 l 2,-1 -0.2793,-0.55664 c -1.06024,-0.37294 -1.96001,-0.85761 -2.73047,-1.41016 -0.77828,0.0329 -1.60681,0.0112 -2.47656,-0.0605 z M 241,583 l 1.85938,2.60156 -1.19336,5.06446 -2.22071,-2.22071 z m -3.66602,8.66602 0.0664,0.13476 L 237,592 Z" />
      <path
         id="path102056"
         style="fill:none"
         d="m 241.55078,574.65234 c -0.87081,0.15523 -1.69861,0.23989 -2.48047,0.26368 -1.15682,0.86902 -2.65042,1.56842 -4.49804,1.98242 l -0.15625,0.57422 -1.05274,-0.35157 c -0.89308,0.13077 -1.85307,0.20313 -2.88476,0.20313 h -1.06446 c -1.24511,0 -2.38681,-0.10346 -3.42968,-0.29102 L 225,579 h -5 l -8,4 10,1 2.66211,7.09766 c 0.64341,0.40103 1.21453,0.83799 1.69922,1.30859 0.54614,0.006 1.09245,0.008 1.63867,0.0137 V 592 l 4,-3 -1,2 v 1.44531 c 0.80017,0.006 1.60036,0.0141 2.40039,0.0195 3.56546,0.0244 6.28922,0.88265 8.1875,2.17969 1.85801,0.27834 3.40561,0.81449 4.67773,1.51367 0.14442,-0.10252 0.28674,-0.20802 0.42969,-0.3125 L 242.31055,581.04883 246,579 h -3 z" />
      <path
         id="path102058"
         style="fill:none"
         d="M 187,567.8125 V 568 l 5,1 0.23438,-0.0781 c -1.77584,-0.2155 -3.52234,-0.58807 -5.23438,-1.10938 z m 14.60742,0.85156 c -1.19514,0.27377 -2.4129,0.39236 -3.63476,0.46485 -1.23865,0.0975 -2.4764,0.0593 -3.71289,-0.0195 L 193,571 l 2,-1 2,3 5,-1 2,2 -2,-1 2,2 1.91016,-2.86719 c -1.53605,-0.79195 -2.66831,-1.81214 -3.42188,-2.9375 -0.29485,-0.20247 -0.59303,-0.37968 -0.88086,-0.53125 z m 4.44336,3.53906 L 207,576 l 7,1 5,-1 2,1 v 2 l 4,-1 h 15 l -3.99609,-1.49805 c -1.54349,0.51929 -3.38454,0.82227 -5.52539,0.82227 h -1.06446 c -3.7118,0 -6.50981,-0.91576 -8.42578,-2.29102 -0.87088,0.0367 -1.79636,0.015 -2.78125,-0.0801 -1.89224,-0.18258 -3.75979,-0.5531 -5.61133,-0.9746 -0.35062,-0.0845 -0.69798,-0.18119 -1.04297,-0.28321 -2.19396,-0.2209 -4.02265,-0.75409 -5.50195,-1.49219 z" />
      <path
         id="path102060"
         style="fill:none"
         d="M 202.44922,569.16797 203,571 204.07617,572.61523 205,572 l -0.48047,-0.7207 c -0.86788,-0.63153 -1.56243,-1.34421 -2.07031,-2.11133 z m 1.62695,3.44726 L 202,574 l 2,2 h 2 l -1,-2 z" />
      <path
         id="path102062"
         style="fill:none"
         d="M 91,494 88.367188,505.4082 90,505 l 1,-1 v 1 L 88.130859,506.43555 88,507 l 5.25,-1.5 1.058594,0.42383 -0.648438,-0.54102 L 95,505 l -0.5,1 0.833984,0.33398 L 96,506 l 4,2 -1.076172,0.53906 L 102,511 l 6,2 h 4 l 5,3 1,2 3,2 4,3 1,-4 6,-7 2,-1 -5,5 7.59961,0.94922 c -0.25712,-1.02852 -0.44294,-2.1532 -0.54102,-3.37695 -0.0954,-1.19116 -0.26263,-2.41395 -0.42773,-3.61329 -0.12127,-0.6243 -0.0547,-0.2888 -0.19531,-1.00586 -0.1793,-0.91418 -0.28798,-1.78156 -0.33985,-2.60546 L 100,494 l 1,3 3,3 -2,3 -7,-6 z M 98.923828,508.53906 97,507 95.333984,506.33398 95,506.5 98,509 Z M 95,506.5 94.470703,506.05859 94,507 Z M 94.470703,506.05859 94.5,506 94.308594,505.9238 Z m -6.339844,0.37696 0.236329,-1.02735 L 86,506 h -2 l 3,1 z M 139,522.08789 V 523 l -6,4 v 2 l -3,-5 1,2 -0.5,1 1.5,2 3,2 -1.86719,14.00391 12.67383,-4.92774 L 145,539 h 4 l 3.63672,2.01953 c 0.31924,-1.04991 0.89524,-1.94531 1.64648,-2.66406 -1.33141,-1.76725 -2.48632,-3.65028 -3.53125,-5.59961 -1.32246,-2.59834 -2.14899,-5.38423 -2.87109,-8.19531 -0.0441,-0.18543 -0.087,-0.37116 -0.13086,-0.55664 -2.69511,1.88105 -6.25308,1.23981 -8.75,-1.91602 z m 6.80664,17.98828 L 148,543 v -3 h -2 z m -12.67383,4.92774 -1.19531,0.46484 L 133,546 Z M 131.9375,545.46875 131,545 l -9,2 h 6 z M 130.5,527 129,525 h -5 l 3,3 v 3 l 3,-3 z" />
      <path
         id="path102064"
         style="fill:none"
         d="m 102,486 -4,2 -1,4 7,12 2.80859,0.70312 z m 4.80859,18.70312 0.28125,1.0879 0.39454,-0.91993 z m 0.67579,0.16797 L 112,506 l -1,-3 -1,-4 z m -0.39454,0.91993 L 107,506 l 0.16016,0.0645 z m 0.0703,0.27343 L 111,521 v 1 l 0.80078,-1 H 113 L 112.14258,520.57227 115,517 l -1,-5 4,2 4,3 3,2 2,-2 v -4 l -1,2 v -9 l -4,10 -10,-8 z" />
      <path
         style="fill:none"
         d="m 117,524 -2,2 4,-5 -3,-4 h 2 l 3,1 3,-1 2,-1 -2,-3 -1,-2 3,-2 -3,7 -3,1 -2,2 -4,1 -9,-1 3,-1 h 5 l 2,-4 h -7 l 4,-2 -7,9 1,-4 -2,2 1,-10 h -4"
         id="path102066" />
      <path
         id="path102068"
         style="fill:none"
         d="m 119,506 2,1 -1,6 -14,-4 11.47656,15.57617 L 126,517 l 2,6 2,-2 1.81836,-6.36328 L 130,516 l -3,-4 v -6 z m 12.81836,8.63672 L 134,513 l 1,-3 h -2 l 1,2 -2,2 z m -14.3418,9.93945 L 117,525 l -3,3 h 6 z M 114,528 h -1 l 2,-3 -7,3 -1,2 3,1 2,-1 z" />
      <path
         id="path102070"
         style="fill:none"
         d="m 86,491 1,4 h 2 L 118.56055,523.63672 120,515 l 1,-4 -1,-3 -2,-1 1,5 -2,-1 -2,-2 -2,1 -2,-1 h -3 v -5 l -2,1 1,-2 -4,-5 -3,4 -7,-5 2,1 -2,-3 -2,-4 z M 118.56055,523.63672 118,527 l 1.48242,-2.4707 z m 0.92187,0.89258 L 121,526 h 3 l -3,-4 z" />
      <path
         style="fill:none"
         d="m 89,492 -1,3 h 3 l 6,-9 2,-1 h -5 l 3,3 -3,-1 -2,-5 3,2 2,-1 10,5 -2,3 -3,6 -11,5 -1,2 v -3 l 3,1 -2,-2 -6,2 -4,-1 2,5 -2,-3 2,-2 4,-1 h 2"
         id="path102072" />
      <path
         id="path102074"
         style="fill:none"
         d="M 111.87695,486.41406 100.79883,494.89844 101,495 107.34375,500.4375 105,502 l -4.28516,6 H 106 l 19,-3 h 2 l 4,7 4.0918,-5.72852 c -0.0234,-0.39895 -0.0335,-0.78704 -0.0293,-1.16406 -1.63149,-1.15685 -3.24561,-2.98877 -4.66797,-5.60351 -0.14702,-0.27029 -0.28009,-0.54612 -0.41406,-0.82227 -0.41761,-0.23181 -0.81264,-0.47095 -1.16406,-0.72852 -4.31284,4.86312 -11.40966,2.67605 -12.23438,-6.06445 -2.08039,-0.68435 -3.87376,-2.54467 -4.70508,-5.47461 z M 100.71484,508 H 95 l 12,5 3,-2 -4,1 -3,-2 -3,-1 z m 0.084,-13.10156 L 99,494 97,490 99,489 88.285156,492.57227 90,496 H 88 L 86.199219,495.09961 89,500 l -1.761719,5.28516 z m -13.560549,10.38672 -0.658203,0.5039 L 87,506 Z m -0.658203,0.5039 L 83,504 l 2,3 z m -0.380859,-10.68945 -0.878907,-1.53906 2.964844,-0.98828 L 88,492 l -3,-1 -1,3 1.285156,-0.42773 L 86,495 Z M 109,498 h 2 l -2,1.33398 z m 3,3 v 3 l -1.63672,-2.45508 z m -2.14258,0.71484 L 109,506 v -4 z" />
      <path
         id="path102110"
         style="fill:none"
         d="m 201.60742,568.66406 c -0.20152,0.0462 -0.4047,0.0813 -0.60742,0.11914 V 570 l 2,2 -15.58594,3.71094 L 193,577 l 2.5,2.5 -3.5,1.5 3,1 0.60156,0.90234 c 0.82902,0.14024 1.65469,0.30459 2.47461,0.48438 L 199,582 l 2,1 -1,-4 -1.33398,-0.5 L 199,578 198.22266,578.33398 192,576 l 6,1 4.38477,1.87891 2.31835,6.49218 c 0.45672,0.19325 0.88729,0.39891 1.29688,0.61329 V 573 l -0.78711,-1.25977 c -1.19597,-0.72933 -2.10927,-1.60667 -2.74609,-2.56054 -0.28772,-0.19574 -0.57873,-0.36784 -0.85938,-0.51563 z M 187.41406,575.71094 180,574 l 4,2 -0.66016,0.66016 c 0.009,0.005 0.0183,0.009 0.0273,0.0137 z" />
      <path
         id="path102112"
         style="fill:none"
         d="m 165,564 9,7 -0.61719,0.44922 c 0.74383,0.46963 1.48458,0.94316 2.2168,1.43164 0.57848,0.38591 1.10684,0.78138 1.5957,1.18359 0.56112,0.16676 1.11936,0.35152 1.67383,0.54883 0.044,0.0175 0.087,0.0371 0.13086,0.0547 v -0.35156 z m 14,10.31641 1.11133,0.82031 c 0.2278,0.0985 0.45532,0.19689 0.68164,0.29883 L 179,574 Z" />
      <path
         id="path102114"
         style="fill:none"
         d="m 152,546 -6,3 5,3 -3,2 10,8 4,1 -1,-3 5,1 -2,1 0.74805,3.73828 c 1.16392,0.8621 2.35984,1.67942 3.55859,2.49219 0.58634,0.40114 1.18217,0.78712 1.78125,1.16797 l 5.68945,-3.6211 L 171,561 l 0.56641,-0.61914 c -0.62683,-0.14734 -1.27478,-0.33465 -1.94141,-0.56445 -2.09227,-0.29408 -4.45025,-1.23269 -6.93164,-3.03516 -0.25935,-0.18839 -0.51553,-0.38149 -0.77148,-0.57422 -0.31365,-0.19207 -0.62484,-0.38753 -0.9336,-0.58789 -1.40657,-0.91276 -2.52837,-1.91063 -3.40234,-2.94922 -0.10623,-0.0987 -0.19383,-0.18302 -0.58203,-0.54883 -1.67194,-1.57535 -2.84158,-3.17216 -3.59571,-4.71289 z M 175.77734,565.77734 176,566 l 1,-1 z M 177,565 l 2,1 -1,-2 z" />
      <path
         id="path102116"
         style="fill:none"
         d="m 174,563 2,2 4,2 0.51367,-0.61523 L 180,566 Z m 6.51367,3.38477 L 184,569 h 6 l 4,2 3,-1 -0.4082,-0.81836 c -1.13055,0.009 -2.26026,-0.0596 -3.38868,-0.14648 -2.20116,-0.19122 -4.35778,-0.63704 -6.46289,-1.29688 -0.39674,-0.15628 -0.79271,-0.31248 -1.18945,-0.46875 -1.5658,-0.61674 -2.86726,-1.36698 -3.9414,-2.19922 z M 199.5,568.99805 c -0.49856,0.0533 -0.99873,0.0989 -1.5,0.1289 V 571 l 3,3 z" />
      <path
         id="path102118"
         style="fill:none"
         d="M 208.64453,573.17773 207,574 l 2,3 5.68164,-2.58203 c -0.69733,-0.1362 -1.39354,-0.28183 -2.08594,-0.43945 -0.35324,-0.0851 -0.70326,-0.18226 -1.05078,-0.28516 -1.0481,-0.10571 -2.01617,-0.27978 -2.90039,-0.51563 z m 31.11524,1.70118 c -0.0603,0.005 -0.1218,0.0118 -0.18165,0.0156 L 240,575 Z m -20.77344,0.125 L 215,576 l 2,3 6,-2 -1.80078,-1.80078 c -0.0786,-0.053 -0.15083,-0.10949 -0.22656,-0.16406 -0.62983,0.026 -1.29685,0.0104 -1.98633,-0.0312 z" />
      <path
         id="path102132"
         style="fill:none"
         d="M 247.18555,576.14258 247,578 h 2 l 1,3 2.49609,1.66406 c -0.1837,-0.94506 -0.30352,-1.97064 -0.34179,-3.08203 -0.0304,-0.88559 -0.0139,-0.43344 -0.0508,-1.35742 -0.002,-0.0397 -0.004,-0.0794 -0.006,-0.11914 -1.28978,-0.30808 -2.67049,-0.81972 -4.12696,-1.57227 -0.49036,-0.25336 -0.60505,-0.30425 -0.78515,-0.39062 z M 242,583 l 3,3 4,5 0.97852,1.76172 c 0.29342,-0.88674 0.70276,-1.8171 1.25195,-2.78711 0.20651,-0.36471 0.13226,-0.86016 0.2832,-1.23242 0.23519,-1.15855 0.50565,-2.50921 0.73438,-3.56055 0.12726,-0.58495 0.27873,-1.1342 0.43945,-1.66797 -0.0427,-0.17034 -0.087,-0.33731 -0.125,-0.51367 z" />
      <path
         id="path102134"
         style="fill:none"
         d="m 251,584 -2,1 3.21289,0.35742 c 0.0115,-0.0532 0.0239,-0.12394 0.0352,-0.17578 0.0531,-0.24389 0.11672,-0.47206 0.17578,-0.70703 z m -2,6 1.64844,1.09766 c 0.0666,-0.1403 0.13463,-0.28172 0.20703,-0.42383 z" />
      <path
         id="path102206"
         style="fill:none"
         d="m 455,286 -0.32031,0.48047 c 0.64081,0.0708 1.28092,0.14828 1.91992,0.22656 1.64565,0.18988 3.27417,0.4864 4.90234,0.78516 L 462,286 Z" />
      <path
         id="path102218"
         style="fill:none"
         d="M 466.24414,284.63281 466,285 l -0.85938,3.43555 c 0.0403,0.0147 0.0811,0.028 0.1211,0.043 0.17003,-0.46417 0.32927,-0.93211 0.46875,-1.40821 0.2217,-0.80391 0.38291,-1.61837 0.51367,-2.4375 z" />
      <path
         id="path102220"
         style="fill:none"
         d="M 461.88867,271.77734 463,274 l 1.06836,-0.23633 c -0.83391,-0.65387 -1.55854,-1.31856 -2.17969,-1.98633 z m 4.22266,3.55469 L 467,278 l 0.0859,0.15039 c 0.14163,-0.58888 0.30817,-1.14248 0.49804,-1.66016 -0.49029,-0.38681 -0.9804,-0.77392 -1.47265,-1.1582 z" />
      <path
         id="path102222"
         style="fill:none"
         d="M 466.98242,276.01758 466,277 l 0.79492,2.65039 c 0.17756,-1.17032 0.44557,-2.22366 0.78906,-3.16016 -0.20042,-0.15767 -0.40136,-0.3147 -0.60156,-0.47265 z" />
      <path
         id="path102228"
         style="fill:none"
         d="m 463,147 1,4 0.18555,0.62891 L 465,150 v -3 z m 1.18555,4.62891 L 463,154 l 1.45508,-1.45508 z m 0.26953,0.91601 L 469,168 v 4 l 0.48242,2.41211 c 0.0876,-0.61536 0.1757,-1.23116 0.2461,-1.84961 0.2456,-1.88741 0.38415,-3.78631 0.5957,-5.67773 0.0742,-0.66318 0.18189,-1.28681 0.30273,-1.89258 L 469,155 l 1,-2 v -6 z M 469,175 l -2,8 v 4 l 0.50977,0.84961 c -0.46047,-2.11969 -0.26957,-4.76741 0.90429,-7.84766 0.30821,-0.80874 0.44536,-1.67696 0.58008,-2.52734 0.11187,-0.62161 0.21175,-1.24399 0.31055,-1.86719 z m -8,16 v 7 l 2.34961,5.875 c 0.23354,-1.17721 0.47826,-2.35244 0.77734,-3.51367 0.26295,-1.02091 0.58482,-1.94561 0.94532,-2.79688 0.15947,-1.08604 0.43363,-2.24094 0.85742,-3.46875 0.28252,-0.81852 0.57236,-1.6353 0.85742,-2.45312 z" />
      <path
         id="path102230"
         style="fill:none"
         d="m 471,123 -3,2 1,4 2,2 -5,-1 -2,2 -5,10 2,-3 1,2 h 6 v 0.19922 l 7.05469,-2.82031 L 476,139.16602 V 136 Z m 5,16.16602 V 140 l 1.44531,1.44531 L 479,136 v 2 l 2,-3 h -3 l -1,5 z m 1.44531,2.27929 L 477,143 l 2,1 -1,-2 z M 468,141.19922 466,142 l -2,3 h 4 z" />
      <path
         style="fill:none"
         d="m 466,128 v -2 l -1,-7 v -12 l -2,-8 v -9 l -4,-3 -5,-8 4,5 -1,-2 2,2 2,3 v -4 l 2,-14 -4,5 -4,-6 -5,-5 -7,1 v -3 l -1,2 8,-2 -1,-3 2,2"
         id="path102232" />
      <path
         style="fill:none"
         d="m 457,56 h -2 l 2,1 1,-2 1,11 v 6 l 2,1 v -9 l -1,-2 v -3 l 1,-9 1,-4 -1,-2 -3,4 -3,7 5,-3 v 2 h -2 l -2,1 4,-7 v -2 l 2,-1 v -2 l 10,14 -5,4"
         id="path102234" />
      <path
         style="fill:none"
         d="m 471,64 -2,2 2,-3 2,-1 -2,-3 -2,-10 2,3 1,-2 -4,3 1,3 -4,8 v 4 l -2,2 4,4 -1,2 -3,2 1,-3 v -2 l -1,2 -2,1 -2,7 4,-3 -2,13 3,4 -3,3 v 2"
         id="path102236" />
      <path
         style="fill:none"
         d="m 465,96 v 8 l -1,2 -1,6 -2,2 v -10 l 1,-2 -3,-16 1,-2 -2,-1 -1,-3 -7,-3 -3,2 -1,2 h -3 l 1,-7 h 4 l 1,2 2,1 2,2 -5,-2 1,-3 v -2"
         id="path102238" />
      <path
         style="fill:none"
         d="m 451,79 1,-2 2,1 -1,-10 -3,-3 h -6 l 6,6 h -2 l -3,2 2,8 3,-6 3,4 1,-2 2,2 -3,1 3,4 -6,-12 -4,1 h 4 l -3,4 -1,3 -4,1 v -2 l 1,-4 v 2"
         id="path102240" />
      <path
         style="fill:none"
         d="m 445,65 -3,-1 h 10 l -2,-2 -4,1 2,-3 v -3 l -5,3 h 4 l -2,-2 2,-1 4,1 -2,-1 8,15 -1,-4 1,2 1,-2 -3,-2 -1,4 3,3 3,-1 v -6 l -2,-5 -4,-6 1,-3"
         id="path102242" />
      <path
         style="fill:none"
         d="m 461,45 v 3 l -2,4 v 8 l 1,4 v 7 l 5,-5 1,-3 1,-11 v -4 h 3 l 2,3 v 7 h -4 l -1,-4 5,9 -1,2 -4,6 -1,3 -2,3 -2,7 v 39 -2"
         id="path102244" />
      <path
         id="path102246"
         style="fill:none"
         d="m 459,117 4,13 6,8 -1,2 -2,-3 -3,6 v 3 h 11.83398 L 472.73242,144.19922 472,142 l 4,-9 -3,-1 h -7 l -1,-3 0.13281,-0.93359 L 469,130 l -2,-2 v -7 l -1,-4 z m 15.83398,29 1.16602,1 v 1.29297 c 0.3517,-0.33807 0.72192,-0.67189 1.13477,-0.99609 L 478,146 Z M 469,141 h 2 l -0.35352,1.41211 z" />
      <path
         id="path102248"
         style="fill:none"
         d="m 463,129 -6.78906,28.51367 c 2.57266,1.6968 4.31464,5.55273 3.53711,11.36719 -0.2672,1.99811 -0.66039,3.9777 -1.06055,5.95312 1.61503,1.26652 2.61158,3.40863 2.50391,6.13086 L 467,190 l 0.52148,-2.08594 C 467.10664,186.0658 467.19525,183.80812 468,181.21094 V 181 l 0.79297,-2.37891 c 0.0765,-0.38124 0.1408,-0.76544 0.20117,-1.14648 0.29347,-1.63062 0.54691,-3.26506 0.73438,-4.91211 0.10624,-0.81649 0.19072,-1.63583 0.27148,-2.45508 V 156 l -1,-2 v -15 l -5,-5 2.31641,-0.57812 z m 3.31641,4.42188 L 469,137 l -1,-3 2,1 -2,-2 z" />
      <path
         id="path102254"
         style="fill:none"
         d="m 445.2832,269.91016 c 5.1e-4,0.002 6.4e-4,0.004 0.002,0.006 0.23344,0.74784 0.47487,1.4928 0.71484,2.23828 V 270 Z" />
      <path
         id="path102318"
         style="fill:none"
         d="m 447,247 -1.81445,2.41992 c 0.3365,1.67295 0.36669,3.66764 -0.0234,5.97461 -0.11669,0.68997 -0.20635,1.38363 -0.28516,2.07813 l 3.94141,4.07226 z m 1.81836,14.54492 L 449,263 v 3 l 2.57227,6 H 458 v 4 l 2,-3 -3,-3 z M 451.57227,272 H 450 l 5,9 1.73047,-0.43164 L 452,273 Z m 5.1582,8.56836 L 457,281 l 3,3 -1,-4 z" />
      <path
         id="path102340"
         style="fill:none"
         d="m 447,136 -1,4 -3.11133,6.22266 c 0.53305,0.0119 1.04199,0.0502 1.5293,0.10742 L 445,144 l 5,-4 z m 9,15 -2.69141,5.38477 -0.75195,0.15429 c 0.12309,-0.008 0.24652,-0.013 0.36914,-0.0137 3.45457,-0.0188 6.67412,3.00452 6.98438,8.74805 L 461,164 l -1,-4 4,-5 1,4 h 8.05078 c 0.19206,-0.27099 0.39117,-0.52355 0.5957,-0.76367 -1.03197,-1.64418 -1.22354,-3.78581 -0.38281,-5.98047 l -18.53711,3.83594 z" />
      <path
         id="path102342"
         style="fill:none"
         d="m 434.69531,138.95117 c 0.0239,0.52921 0.0398,1.05953 0.0371,1.58985 -0.008,1.62758 -0.18943,3.08096 -0.50586,4.36328 1.02335,0.36643 2.06158,0.69022 3.10938,0.98242 0.28837,0.0904 0.57478,0.16828 0.86133,0.23242 z" />
      <path
         id="path102370"
         style="fill:none"
         d="m 447.91797,278.61328 c 0.27891,1.0466 0.55372,2.09412 0.81641,3.14453 0.39392,1.5752 0.57608,3.02432 0.58398,4.33985 0.52059,0.0102 1.04053,0.0321 1.56055,0.0605 L 450,280 Z" />
      <path
         id="path102372"
         style="fill:none"
         d="m 464,286 -3,1 h -2.32031 c 1.10246,0.17585 2.20039,0.37675 3.29883,0.57812 0.12629,0.0232 0.24144,0.0532 0.36523,0.0781 z" />
      <path
         id="path102380"
         style="fill:none"
         d="m 445.06445,267.05859 c -0.0108,0.9587 -0.0169,1.92296 0.22071,2.85743 0.0603,0.19308 0.1226,0.38531 0.18359,0.57812 z M 448,278 l -0.20312,0.16211 c 0.11803,0.44053 0.23568,0.88112 0.35156,1.32227 z m 4,8 0.34375,0.25781 c 0.36223,0.0294 0.72413,0.0646 1.08594,0.0996 z m 12,1 -0.46484,0.92969 c 0.11514,0.0302 0.22325,0.0639 0.33593,0.0957 z" />
      <path
         id="path102382"
         style="fill:none"
         d="m 458,219 -3,5 v 4 l -1,3 v 2 l 2,-6 z m -4,14 -1,3 0.42773,1.28516 L 454,235 Z m -0.57227,4.28516 -0.84179,3.36914 L 452,240 452.42773,241.28516 452,243 l 0.15625,0.70312 c 0.21848,-2.2954 0.75254,-4.20441 1.49609,-5.74414 z m 3.53516,28.46289 L 457,266 l 4,6 -1,3 h 5.67578 c -0.38137,-0.29486 -0.76143,-0.59137 -1.14844,-0.87891 -2.619,-1.94587 -4.23852,-4.00504 -5.04882,-5.95507 -0.8852,-0.75886 -1.74763,-1.54454 -2.51563,-2.41797 z" />
      <path
         id="path102384"
         style="fill:none"
         d="m 456,268 2,11 2,-3 v 3 l 1.95117,-7.15625 c -0.90491,-0.96195 -1.60053,-1.93067 -2.09765,-2.88086 z" />
      <path
         id="path102386"
         style="fill:none"
         d="M 467.25977,276.23633 466,278 l 0.48242,4.83008 c 0.0459,-0.46418 0.0829,-0.92983 0.11328,-1.39649 0.12452,-1.91109 0.47759,-3.55101 0.98828,-4.94336 -0.10791,-0.0848 -0.21649,-0.16883 -0.32421,-0.2539 z" />
      <path
         id="path102388"
         style="fill:none"
         d="m 462,205 -2,3 v 2 l 0.57227,2.28516 L 461,211 l 1.45312,-2.17969 c 0.01,-0.0563 0.017,-0.1113 0.0274,-0.16797 0.0871,-0.48368 0.16843,-0.9686 0.25195,-1.45312 z m -1.42773,7.28516 L 460,214 l 1,2 -0.14258,0.49805 c 0.12491,-0.22377 0.25625,-0.4337 0.38867,-0.64063 -0.0292,-0.55057 -0.0318,-1.12007 0.0215,-1.72461 L 461,214 Z M 455,221 l -4,14 -4.56445,2.2832 c -0.26054,1.20121 -0.49303,2.40721 -0.68555,3.62305 -0.2885,1.54804 -0.14801,0.81721 -0.41992,2.18945 -0.016,0.0806 -0.038,0.15305 -0.0547,0.23242 L 452,244 l 0.13086,-0.0332 c 0.003,-0.0377 0.004,-0.0755 0.008,-0.11328 0.33512,-3.79299 1.52789,-6.54438 3.10742,-8.32032 0.0228,-0.13711 0.038,-0.2753 0.0625,-0.41211 0.42817,-2.30191 0.97609,-4.57763 1.67383,-6.81445 0.0716,-0.21557 0.14815,-0.42953 0.2207,-0.64453 L 455,227 l 1,-3 2,-2 z m -6,26 v 7 l 0.45117,0.67773 L 448,260 l -3.125,-2.5 c -0.15304,1.35592 -0.25197,2.71755 -0.32812,4.08008 -0.009,0.17704 -0.0112,0.35421 -0.0195,0.53125 0.35999,1.38772 0.55922,2.98328 0.53907,4.80273 -0.0111,1.00613 -0.0308,2.02058 0.21875,3.00196 0.66573,2.13275 1.38207,4.24716 2.01172,6.39257 0.24164,0.88305 0.48215,1.76704 0.71679,2.65235 L 450,273 l 1,4 v 2 l 14,-3 v -1.51758 c -0.15811,-0.11972 -0.31344,-0.24303 -0.47266,-0.36133 -2.62641,-1.95128 -4.24669,-4.01734 -5.05468,-5.97265 -1.32919,-1.1389 -2.60716,-2.3383 -3.60157,-3.79297 -1.24124,-1.90529 -2.30828,-3.92302 -2.87695,-6.14063 -0.17074,-0.66584 -0.30655,-1.30368 -0.41602,-1.91992 -0.33175,-1.32798 -0.53118,-2.69004 -0.64062,-4.05664 -0.0532,-1.21012 -0.0603,-2.4203 -0.041,-3.6289 z m 2.80078,11.19922 L 453,260 v 4 l 2,1 -2,1 -3,-6 z" />
      <path
         id="path102402"
         style="fill:none"
         d="m 482,105 -1,4 -3,2 -4,4 -3,2 1.05469,4.74219 L 473,122 l 1,-2 3,-1 3,-3 1,-2 2,-5 2,-2 -1,-2 z M 472.05469,121.74219 462,119 l 2,3 v 3 l -11,11 -2,-1 0.23047,0.91992 26.95898,10.61328 c 0.12035,-0.0806 0.25427,-0.15702 0.37891,-0.23632 L 479,145 h -2 l 4,-8 -2,2 3,-4 -7,-3 -1,-4 -1,-2 z m -20.82422,14.17773 -1.41211,-0.55469 L 452,139 Z M 449.81836,135.36523 449,134 441.30078,130.5 444,126 l -2,-1 v 3 l -2.33984,1.75391 -1.25196,-0.56836 L 438,130 l -1.1582,0.25781 1.41015,0.55469 L 438,131 h 0.73047 z m -12.97656,-5.10742 -3.28321,-1.29297 c -0.004,0.005 -0.0211,0.024 -0.0254,0.0293 0.1021,0.64394 0.20223,1.2884 0.29492,1.93359 z m 1.5664,-1.07226 L 439,128 438.33398,127.66602 438,129 Z M 438.334,127.66602 438.5,127 H 437 Z M 438.5,127 h 2.5 l -0.66602,-2 H 439 Z m 1.83398,-2 H 442 l -2,-1 z M 475,147 v 2.36328 c 0.3427,-0.41186 0.72243,-0.81724 1.14844,-1.21484 z" />
      <path
         id="path102420"
         style="fill:none"
         d="m 447,252 -1.55664,0.38867 c -0.012,0.93499 -0.1003,1.93595 -0.28125,3.00586 -0.34603,2.04599 -0.4994,4.11598 -0.61523,6.18555 -0.009,0.17258 -0.0154,0.34506 -0.0234,0.51758 0.0584,0.2243 0.11254,0.45385 0.16211,0.68945 L 447,257 Z m -2.12109,11.91992 c 0.0514,0.37116 0.0912,0.75687 0.12109,1.15235 V 264 Z" />
      <path
         id="path102424"
         style="fill:none"
         d="m 454,229 -1,4 h 2.25 l 0.75,-3 z m 1.25,4 -0.25,1 0.23633,1.41602 0.0234,0.01 c 0.0172,-0.10144 0.0306,-0.20341 0.0488,-0.30469 0.1321,-0.71033 0.27978,-1.41629 0.43555,-2.12109 z m -0.0137,2.41602 -7.55469,-3.18164 c -0.12796,0.47852 -0.26048,0.95625 -0.38672,1.43554 -0.61108,2.39285 -1.15864,4.79682 -1.54492,7.23633 -0.2885,1.54804 -0.14801,0.81721 -0.41992,2.18945 -0.26825,1.35377 -0.64155,2.55105 -1.08594,3.61524 1.08683,2.05164 1.54733,4.96237 0.91797,8.68359 -0.34603,2.04599 -0.49951,4.11598 -0.61523,6.18555 -0.009,0.17704 -0.0112,0.35421 -0.0195,0.53125 0.35999,1.38772 0.55922,2.98328 0.53907,4.80273 -0.0111,1.00613 -0.0308,2.02058 0.21875,3.00196 0.66573,2.13272 1.38207,4.24719 2.01172,6.39257 0.49583,1.81147 0.98184,3.62717 1.4375,5.44922 0.39436,1.57761 0.57086,3.02474 0.57617,4.33985 2.43755,0.0474 4.8708,0.31314 7.28906,0.60937 1.80617,0.2084 3.59184,0.54362 5.37891,0.87109 1.21007,0.2219 2.29231,0.53178 3.27539,0.89844 0.1695,-0.46451 0.33707,-0.93013 0.47656,-1.40625 0.50808,-1.84231 0.74106,-3.73096 0.86523,-5.63672 0.1244,-1.9088 0.47647,-3.54797 0.98633,-4.93945 -1.01216,-0.79885 -2.01956,-1.60395 -3.05469,-2.37305 -2.62645,-1.95132 -4.24669,-4.01734 -5.05468,-5.97265 -1.32919,-1.1389 -2.60716,-2.3383 -3.60157,-3.79297 -1.24124,-1.90529 -2.30828,-3.92302 -2.87695,-6.14063 -0.17074,-0.66584 -0.30655,-1.30368 -0.41602,-1.91992 -0.33179,-1.32798 -0.53118,-2.69004 -0.64062,-4.05664 -0.12307,-2.79799 -0.0454,-5.59461 0.20117,-8.38476 0.33486,-3.79005 1.5253,-6.54033 3.10352,-8.31641 0.003,-0.0162 0.003,-0.0327 0.006,-0.0488 z" />
      <path
         id="path102476"
         style="fill:none"
         d="m 452,262 -4.95898,13.46289 c 0.0857,0.28186 0.17285,0.56287 0.25586,0.8457 0.49587,1.81147 0.98184,3.62717 1.4375,5.44922 0.32905,1.31641 0.50419,2.54061 0.56054,3.67774 l 0.45508,0.67187 c 0.009,2.8e-4 0.0182,0.002 0.0273,0.002 l -0.44336,-1.7754 L 458,283 l -4.97656,3.31836 c 1.19443,0.10914 2.38753,0.24306 3.57617,0.38867 0.79038,0.0912 1.57696,0.20942 2.36133,0.33789 L 459,287 l 6.37891,1.16016 c 0.12564,-0.36034 0.24397,-0.72262 0.35156,-1.08985 0.50808,-1.84231 0.74106,-3.73096 0.86523,-5.63672 0.0846,-1.29804 0.27528,-2.47122 0.54688,-3.52929 L 466,276 l -2,2 0.4375,-3.94727 c -2.56669,-1.92656 -4.16065,-3.96231 -4.96094,-5.89062 -0.36788,-0.31864 -0.73626,-0.63679 -1.09179,-0.96875 L 458,267 l -2,4 h -6 l 1,-3 5.16992,-3.23242 c -0.1009,-0.13618 -0.20277,-0.27159 -0.29883,-0.41211 -0.10648,-0.16346 -0.21073,-0.32898 -0.31445,-0.49414 L 455,264 Z" />
      <path
         id="path102482"
         style="fill:none"
         d="m 460,164 -0.20312,0.0684 c 0.13688,1.02086 0.17528,2.14074 0.0957,3.35937 L 460,167 l 3,4 z m 3,8 -4.25781,2.55469 c -0.0196,0.0969 -0.037,0.19416 -0.0566,0.29101 0.41647,0.32712 0.79931,0.70141 1.125,1.14063 z" />
      <path
         id="path102484"
         style="fill:none"
         d="m 448.01367,231 c -0.19376,0.70674 -0.38493,1.4144 -0.57226,2.12305 l 6.21289,4.83203 c 0.45887,-0.94935 0.99754,-1.75395 1.59179,-2.42188 0.0227,-0.13712 0.038,-0.27528 0.0625,-0.41211 0.25758,-1.38487 0.56523,-2.75818 0.91602,-4.12109 z" />
      <path
         id="path102486"
         style="fill:none"
         d="M 453.67969,237.90625 452,238 l -1,4 1,11 0.0137,0.0586 c -0.0282,-0.27317 -0.0543,-0.54687 -0.0762,-0.82031 -0.12307,-2.79799 -0.0454,-5.59422 0.20117,-8.38476 0.2113,-2.39155 0.76703,-4.36408 1.54102,-5.94727 z M 453.5332,259.90234 454,262 l 0.45312,-0.0605 c -0.34319,-0.66234 -0.65482,-1.3395 -0.91992,-2.03711 z" />
      <path
         id="path102492"
         style="fill:none"
         d="m 459,197 -2.71289,6.10156 c -0.0421,1.75284 -0.58891,3.74719 -1.78516,5.88282 L 454,212 l -1.04688,2.61523 c 0.0504,0.55978 0.0416,1.15119 -0.0273,1.76758 L 455,215 455.57617,219.03125 458,220 l -1,-2 v -11 l 2,-4 1,-3 z M 455.57617,219.03125 453,218 v 2 l -1,2 -1.98633,1.18945 c -0.12456,1.17896 -0.39292,2.44913 -0.82617,3.80274 -0.27024,0.84432 -0.52154,1.69334 -0.76562,2.54492 L 449,230 l 1,-3 3,3 1,-3 -3,-2.5 5,-2.5 z m -7.68945,12.44141 c -0.19847,0.732 -0.39857,1.46366 -0.5918,2.19726 -0.11243,0.44024 -0.2206,0.88112 -0.32812,1.32227 L 447,235 l 2,6 6,-5.25 -5,-3.75 z M 455,235.75 l 0.0312,0.0234 c 0.0681,-0.0822 0.13937,-0.15599 0.20898,-0.23438 z" />
      <path
         id="path102506"
         style="fill:none"
         d="m 466,284 -1,3 -0.64648,1.16406 c 0.3144,0.0979 0.61398,0.20456 0.9082,0.31446 0.17018,-0.46392 0.32934,-0.93238 0.46875,-1.40821 0.24431,-0.88587 0.42106,-1.78344 0.55664,-2.6875 z" />
      <path
         id="path102510"
         style="fill:none"
         d="M 456,264.5332 V 267 l 9,11 0.51953,-3.11914 c -0.33006,-0.25413 -0.65777,-0.5113 -0.99219,-0.75977 -0.51864,-0.38535 -0.9917,-0.77549 -1.43359,-1.16797 L 463,273 v -0.12695 c -1.73509,-1.5607 -2.87785,-3.16276 -3.51758,-4.69727 C 458.20201,267.079 456.97915,265.91536 456,264.5332 Z" />
      <path
         id="path102512"
         style="fill:none"
         d="M 455,262.93945 V 263 l 0.0312,-0.008 c -0.0103,-0.0177 -0.021,-0.035 -0.0312,-0.0527 z m 2.33594,3.22071 L 457,267 l 0.58203,-0.58203 c -0.0827,-0.0851 -0.16502,-0.17126 -0.24609,-0.25781 z" />
      <path
         id="path102514"
         style="fill:none"
         d="m 462,185 -2,7 -3,9 v 3 l -2,5 1,2 -1,3 5.33008,3.55469 c 0.27745,-0.61371 0.58213,-1.17473 0.9082,-1.68555 -0.0965,-1.78923 0.21712,-3.8623 1.08203,-6.17383 0.0445,-0.34156 0.0962,-0.68765 0.16016,-1.04297 0.18712,-1.03899 0.361,-2.0812 0.54297,-3.12109 0.33378,-1.72964 0.66416,-3.46409 1.10351,-5.16992 0.26171,-1.0161 0.58107,-1.93711 0.93946,-2.78516 0.15873,-1.08837 0.43837,-2.24943 0.86328,-3.48047 0.0589,-0.1708 0.11996,-0.34115 0.17969,-0.51172 l 1.31835,-6.19531 c -0.12347,-0.74004 -0.17616,-1.53324 -0.13281,-2.38867 z" />
      <path
         id="path102516"
         style="fill:none"
         d="m 468,147 -2,3 1.40039,1.40039 L 469,149 Z m -0.59961,4.40039 L 467,152 l 2,3 v 2 l -1,5 2.82422,2.07227 c 0.61548,-2.47926 1.6231,-4.41296 2.82812,-5.82618 C 473.60086,158.16442 473.54731,158.0841 473.5,158 H 471 v -3 z" />
      <path
         id="path102518"
         style="fill:none"
         d="m 463,130 -6.50195,27.7168 c 1.43817,1.06651 2.58217,2.839 3.11328,5.2832 H 462 l 1,-4 v -4 l 1,3 v -15 l -1,-3 z m 1,28 v 13 l -1,12 1,-5 1,-2 v -15 z" />
      <path
         id="path102522"
         style="fill:none"
         d="m 445,256.49609 c -0.17152,1.24906 -0.28664,2.50364 -0.37109,3.76172 L 445,261 Z" />
      <path
         id="path102586"
         style="fill:none"
         d="m 445.06445,266.77344 c -2.3e-4,0.0481 0.002,0.0922 0.002,0.14062 -0.0111,1.00613 -0.0308,2.02058 0.21875,3.00196 0.56416,1.80741 1.16154,3.60297 1.71484,5.41406 V 270 Z M 449,282 l 2.875,2.875 1.125,0.125 -2,-2 z m 2.875,2.875 -2.64453,-0.29492 c 0.0532,0.52603 0.0706,1.02787 0.0742,1.51758 1.35055,0.0261 2.69912,0.12305 4.04492,0.25195 z" />
      <path
         id="path102588"
         style="fill:none"
         d="m 459.23047,220.88477 -14.35938,27.32617 c 0.60927,1.89067 0.78015,4.29154 0.29102,7.18359 -0.34603,2.04599 -0.49932,4.11598 -0.61523,6.18555 -0.009,0.17257 -0.0158,0.34507 -0.0234,0.51758 0.0415,0.15948 0.0781,0.32503 0.11523,0.49023 L 446,261 v 6 l 3,13 -0.47461,0.94922 c 0.0508,0.19937 0.10414,0.39813 0.1543,0.59766 l 2.09375,-1.39649 L 447,266 v -4 l 5.47266,-6.08203 c -0.27491,-1.20782 -0.43615,-2.44339 -0.53516,-3.67969 -0.12307,-2.79799 -0.0454,-5.59426 0.20117,-8.38476 0.33512,-3.79299 1.5275,-6.54438 3.10742,-8.32032 0.0228,-0.1371 0.038,-0.2753 0.0625,-0.41211 0.42817,-2.30234 0.97609,-4.57763 1.67383,-6.81445 0.54803,-1.65082 1.15045,-3.28218 1.79297,-4.89844 0.0712,-0.51921 0.15143,-1.03689 0.24609,-1.55273 h 0.002 c 0.0615,-0.33508 0.13385,-0.65332 0.20703,-0.9707 z M 450.77344,280.15039 451,281 l 1,2 -1,-3 z" />
      <path
         id="path102590"
         style="fill:none"
         d="m 460,193 v 4 l -6,17 -1.10938,2.66406 c -0.25473,1.80986 -1.03999,3.82564 -2.46289,5.91016 l -0.48437,1.16406 c -0.10839,0.77499 -0.2765,1.5864 -0.51172,2.4336 l 7.31836,2.92773 c 0.0779,-0.26403 0.15039,-0.52998 0.23242,-0.79297 0.40444,-1.2183 0.83713,-2.42735 1.29297,-3.62695 l -0.11328,0.0293 L 459,218 l 2.23047,-3.34766 c 0.0159,-0.32762 0.0434,-0.66228 0.0859,-1.00586 L 460,212 v 4 l -2,2 1,-4 4,-9 v -3 l 2,-5 1,-4 z" />
      <path
         id="path102594"
         style="fill:none"
         d="m 460,157 -2.52148,1.60352 c 0.66584,0.73083 1.23042,1.6512 1.65039,2.75586 z m -3.94922,48.03125 c -0.34001,1.57037 -1.05558,3.27808 -2.22656,5.07031 l -0.80274,29.40821 c 0.55984,-1.64869 1.32896,-2.96987 2.22461,-3.97657 0.0228,-0.13711 0.038,-0.2753 0.0625,-0.41211 0.42817,-2.30215 0.97609,-4.57763 1.67383,-6.81445 0.54803,-1.65082 1.15045,-3.28218 1.79297,-4.89844 0.0712,-0.51921 0.15143,-1.03689 0.24609,-1.55273 h 0.002 c 0.45735,-2.49208 1.25004,-4.48748 2.23828,-6.02344 -0.0721,-1.37412 0.0708,-2.89715 0.54883,-4.58789 L 461,208 Z m -3.48633,51.27539 -0.34179,12.51563 4.3789,-3.50391 c -0.25459,-0.31095 -0.50189,-0.62852 -0.73047,-0.96289 -1.24124,-1.90529 -2.30828,-3.92302 -2.87695,-6.14063 -0.15614,-0.6089 -0.28195,-1.19427 -0.38672,-1.76172 -0.0128,-0.0493 -0.0306,-0.0971 -0.043,-0.14648 z M 452.22266,268.82227 452,269 l 0.2168,0.0488 z m -0.006,0.22656 L 452,277 l 3,-4 v 4 l 3.71875,-6.50781 z m 6.50195,1.44336 L 461,271 l -2,-1 z" />
      <path
         id="path102746"
         style="fill:none"
         d="m 248.18945,576.64258 -0.64453,2.90234 L 248.5,580.5 249,580 248.88867,580.88867 250,582 l 1,-2 1.16602,-0.16602 c -0.004,-0.0844 -0.009,-0.16658 -0.0117,-0.25195 -0.0304,-0.88559 -0.0139,-0.43344 -0.0508,-1.35742 -0.002,-0.0397 -0.004,-0.0794 -0.006,-0.11914 -1.22495,-0.29317 -2.53251,-0.7712 -3.90821,-1.46289 z m 0.69922,4.24609 L 248.5,580.5 247,582 247.54492,579.54492 247,579 l -2.5,2.5 2.5,2.5 -1,2 2,2 z M 244.5,581.5 244,581 l -2,1 -3,-1 -1,-2 -6,3 h -2 l -6,6 -4,1 h -1.75391 c 3.72017,0.45687 6.40735,1.74803 8.11524,3.40625 2.34598,0.0257 4.69301,0.0426 7.03906,0.0586 3.55979,0.0243 6.27663,0.88325 8.17578,2.17774 1.0765,0.16055 2.05606,0.40339 2.93555,0.7168 L 248,591 l -2,1 -3,-1 v -2 l -2,-4 z m -31.5,5.5 -2.86914,1.43555 c 0.19276,0.024 0.3852,0.0496 0.57812,0.0723 1.22925,0.14061 2.46552,0.20923 3.70118,0.26367 L 215,587 Z" />
      <path
         id="path102748"
         style="fill:none"
         d="M 243.625,574.49609 235,585.91211 v 1.63281 l -1.55469,0.42383 -3.14843,4.16797 0.25976,-3.37891 L 226,590 l -0.74805,1.49414 c 0.40323,0.28967 0.77949,0.59181 1.10938,0.91211 0.21287,0.003 0.4258,0.004 0.63867,0.006 V 592 l 0.31055,0.41406 c 2.0296,0.0202 4.06015,0.037 6.08984,0.0508 3.55523,0.0243 6.26595,0.8839 8.16406,2.17578 0.51261,0.0761 1.00864,0.16671 1.47657,0.2793 l 0.53125,-1.0625 L 243,593 l 9.18555,-7.51367 c 0.0201,-0.094 0.0429,-0.21474 0.0625,-0.30469 0.12788,-0.58779 0.27975,-1.13968 0.4414,-1.67578 -0.21801,-0.87041 -0.38157,-1.81218 -0.46875,-2.83984 L 250,579 l -0.78906,-1.875 c -0.40721,-0.17808 -0.82022,-0.37477 -1.24024,-0.5918 -0.74629,-0.3856 -0.34897,-0.18667 -1.19531,-0.59375 -1.04803,-0.48378 -2.08901,-0.9889 -3.15039,-1.44336 z m -0.0527,19.36133 1.02148,1.5332 c 0.0787,0.0286 0.15533,0.0582 0.23242,0.0879 L 244,593 Z m -13.01563,-5.09961 2.88867,-0.78906 L 235,585.91211 V 585 l -4,-2 z" />
      <path
         id="path102750"
         style="fill:none"
         d="M 245.34766,575.27344 241,579 l 4,1 5,8 1.19922,-0.59961 0.47656,0.55469 c 0.19242,-0.94991 0.3941,-1.9545 0.57227,-2.77344 0.12726,-0.58495 0.27873,-1.1342 0.43945,-1.66797 -0.29352,-1.16965 -0.4831,-2.47656 -0.5332,-3.93164 -0.0229,-0.66771 -0.0265,-0.71346 -0.0391,-1.02344 L 251.54492,578.27344 251,579 l -0.72461,-1.44922 c -0.74456,-0.27323 -1.51334,-0.60869 -2.30469,-1.01758 -0.74629,-0.3856 -0.34897,-0.18667 -1.19531,-0.59375 -0.47661,-0.22 -0.95168,-0.44391 -1.42773,-0.66601 z m 6.19726,3 0.19531,-0.25977 c -0.26764,-0.071 -0.53938,-0.14955 -0.81445,-0.23828 L 251,578 Z" />
      <path
         id="path102800"
         style="fill:none"
         d="m 166.51562,567 c 0.42108,0.29229 0.84367,0.58295 1.26758,0.87109 L 168,567 Z m 35.0918,1.66406 c -1.19514,0.27377 -2.4129,0.39236 -3.63476,0.46485 -0.63036,0.0496 -1.26074,0.0586 -1.89063,0.0508 L 190,577 l -1,-3 -6,-2 -5,1 h -2.23438 c 0.50827,0.34601 0.96908,0.70021 1.40821,1.05859 0.56834,0.16841 1.1338,0.35487 1.69531,0.55469 2.19269,0.87193 4.31263,1.9231 6.38281,3.05274 1.64336,0.83877 3.11134,1.96202 4.65821,2.95507 0.11657,0.0769 0.23306,0.15372 0.34961,0.23047 L 208,584 l 2,1 7,-1 9,7 7,-3 v 2 l 2,1 2,-3 4,2 h 4 l 2,1 -0.76562,-3.05859 L 238,585 v 2 l -5,-2 v -7 h -4 l -4,-1 -2,3 -7,-1 -2.40039,-4.80078 c -0.33486,-0.0719 -0.67014,-0.14472 -1.00391,-0.2207 -0.36388,-0.0877 -0.72421,-0.1884 -1.08203,-0.29493 -0.027,-0.003 -0.055,-0.005 -0.082,-0.008 L 211,574 l -4,-1 v -0.37305 c -2.0809,-0.83154 -3.55458,-2.04273 -4.47461,-3.4082 -0.30656,-0.21384 -0.61827,-0.39688 -0.91797,-0.55469 z m 44.62696,19.27735 5.08203,1.81445 c 0.0781,-0.26549 0.0876,-0.56076 0.14843,-0.82617 L 251,588 245.27344,584.72656 244,586 l 2,1 z M 245.27344,584.72656 246,584 h -2 z M 193.19336,569.0332 193,570 l 1.73047,-0.86523 c -0.50933,-0.0275 -1.0185,-0.0604 -1.52735,-0.0996 -0.003,-2.9e-4 -0.006,-0.002 -0.01,-0.002 z" />
      <path
         id="path102810"
         style="fill:none"
         d="m 184.00195,577.00195 c 0.41823,0.21885 0.8359,0.43814 1.25,0.66407 1.00234,0.5118 1.9396,1.12871 2.86914,1.75781 L 191,580 l -0.50391,1.00781 c 0.0259,0.0171 0.0522,0.0337 0.0781,0.0508 0.73079,0.4819 1.38293,0.97978 1.97461,1.48633 0.93039,0.0495 1.85526,0.15848 2.77539,0.30664 L 196,582 h 2 z" />
      <path
         id="path102812"
         style="fill:none"
         d="m 110,504 -1,5 2,-2 v 3 l 2,2 -1,-3 7,8 3,2 -2,1 4,4 2,-1 -1,2 2.64648,2.23633 L 127,524 l 2,-1 -10,-7 -5,-6 z M 127.64648,527.23633 128,529 l 11,12 6,5 8,10 3,2 7,6 1.71289,1.71289 c 1.0658,0.79077 2.15979,1.54174 3.25781,2.28711 H 169 l 3.65625,2.99219 c 0.98905,0.61774 1.97307,1.24138 2.94336,1.88867 0.57716,0.38503 1.09568,0.7808 1.58594,1.18164 0.56434,0.1675 1.12598,0.35235 1.68359,0.55078 2.19269,0.87193 4.31258,1.9231 6.38281,3.05274 1.64336,0.83882 3.11134,1.96202 4.65821,2.95507 0.0867,0.0572 0.17307,0.11478 0.25976,0.17188 L 191,581 l 0.43945,0.14648 -29.47656,-24.91015 c -0.0145,-0.0109 -0.0285,-0.0223 -0.043,-0.0332 -0.31258,-0.19115 -0.62392,-0.38429 -0.93164,-0.58398 -1.3655,-0.88611 -2.4464,-1.85513 -3.30859,-2.86133 -0.11381,-0.10387 -0.22522,-0.21215 -0.67578,-0.63672 -0.18402,-0.17339 -0.35526,-0.34767 -0.52735,-0.52148 z m 63.79297,53.91015 1.70117,1.4375 c 1.7284,0.13857 3.44027,0.46925 5.13086,0.84375 0.0124,0.003 0.0248,0.005 0.0371,0.008 z" />
      <path
         id="path102814"
         style="fill:none"
         d="m 104,486 -2,1 -3.554688,5.33398 L 99,494 l 1,2 5,6.66602 V 495 l 1,6 v 2 l 5,8 2,2 5,3 h -2 l 4.56445,3.04297 L 111,506 l -1,-4 1,-2 -3,-10 -2,-1 -4,-1 z M 120.56445,519.04297 122,521 l 2,2 3,4 3,-2 -8,-5 z M 105,502.66602 V 503 l -3,-1 4,2 z M 98.445312,492.33398 98,491 v 2 z" />
      <path
         id="path102816"
         style="fill:none"
         d="m 92,483 v 4 l 4.410156,1.89062 L 104,502 111.33398,494.66602 110,494 h 2 l 1.33398,-1.33398 L 115,493 v 1 h 1 v -2.33789 c -0.81671,-0.36613 -1.57672,-0.92205 -2.23438,-1.66211 h -4.0996 l 0.16796,1 h -2.56054 l 0.18164,-1 H 100 L 99.572266,489.14258 101,487 99,484 h -2 l -2,-1 h -2 l 0.705078,1.21875 z m 15.45508,7 h 2.21094 L 109,486 h -4 l -1,2 4,-1 z M 115,494 h -3 l -0.66602,0.66602 L 112,495 h 3 z" />
      <path
         id="path102818"
         style="fill:none"
         d="M 132.24414,502.35156 129,521 l -7,1 7,4 -1,7 9.06445,-14.50391 c -0.5029,-1.41377 -0.85601,-3.0537 -1.00586,-4.92382 -0.0954,-1.19116 -0.26263,-2.41395 -0.42773,-3.61329 -0.12127,-0.6243 -0.0547,-0.2888 -0.19531,-1.00586 -0.272,-1.38714 -0.38697,-2.66919 -0.37305,-3.8457 -0.95744,-0.6789 -1.90817,-1.58937 -2.81836,-2.75586 z m 4.90039,16.36133 L 137,519 l 0.21289,-0.10742 c -0.0231,-0.0596 -0.0458,-0.11925 -0.0684,-0.17969 z" />
      <path
         id="path102820"
         style="fill:none"
         d="m 126,526 -3,4 -1,2 1.33398,2.66602 L 126,532 Z m -2.66602,8.66602 L 121,537 122.33398,537.66602 124,536 Z m -1,3 L 122,538 l 0.5,-0.25 z M 122.5,537.75 123,538 109.38867,549.47656 c 1.24228,0.46465 2.41196,1.07845 3.52539,1.79492 L 114,551 l 3,-3 -1,2 2,-2 v 2 l 5,-9 4,1 2,-3 -2,1 h -4 l 1,-3 z" />
      <path
         id="path102824"
         style="fill:none"
         d="m 119,544 -4,2 -6,1 -1.18945,1.98242 c 3.06507,0.77284 5.67593,2.50594 8.08789,4.51172 L 123,548 l -3,1 z" />
      <path
         id="path102826"
         style="fill:none"
         d="m 130,529 -1,2 1.33398,1.33398 L 126,541 149.19922,552.59961 151,555 l 0.6582,-1.31641 -2.08593,-1.11132 L 148,551 148.91602,552.22266 141,548 h 5 l -2,-2 -8,-10 1,2 -2,-2 2,-3 z m 21.6582,24.68359 0.9336,0.49805 L 152,553 Z m 0.9336,0.49805 L 153,555 l 3,2 -2,1 2,1 0.5,0.5 1.5,-1.5 -2,-2 z M 156.5,559.5 156,560 l 0.75,-0.25 z m 0.25,0.25 1.25,1.25 1,-2 z" />
      <path
         id="path102828"
         style="fill:none"
         d="m 135,529 -8,16 2,1 5.1875,4.44727 -6.81445,2.86914 8.0332,1.07226 c 1.34971,-1.06695 2.81936,-1.57536 4.23437,-1.55664 2.08405,0.0276 4.04399,1.18333 5.31446,3.30664 L 154,557 l -3,-1 -3,-3 3,-2 -3,-2 -2,1 -2,-3 -5.79297,-5.06836 L 138,542 138.06445,541.80664 136,540 136.66602,539.33398 136,539 l 1,-4 2.22266,3.33398 L 140,536 Z m 4.22266,9.33398 -1.15821,3.47266 0.14258,0.125 L 141,541 Z m -2.55664,1 L 138,540 v -2 z M 127.37305,553.31641 125,553 l -4,3 z M 135.11523,554.625 131,555 h 2 l 1.55664,0.14844 c 0.18328,-0.1865 0.36936,-0.36013 0.55859,-0.52344 z" />
      <path
         id="path102830"
         style="fill:none"
         d="m 138,521 -4,7 -1,-2 -1.5,-1.5 -1.5,1.5 2,5 2,-2 4.52148,-6.33008 z m 0.52148,1.66992 4.23243,13.54297 L 150,539 l -3,8 -3,-3 -4,-1 -10.28516,6.42773 L 132,550 l 2,-1 h 7 l -4.48242,3.92188 13.71484,-7.68946 L 152,547 v 5 l 2,2 1.8418,-3.07031 c -4.28198,-4.74511 -4.26895,-9.50636 -1.9668,-12.17969 L 153,537 l -2,-2 -1,-2 -2,-1 -3,-6 -0.31641,-0.94727 c -1.60083,0.0603 -3.25406,-0.56516 -4.68359,-1.8789 V 524 l -0.88281,-1.76562 c -0.0507,-0.0616 -0.10057,-0.1258 -0.15039,-0.18946 z m -2.0039,30.25196 -5.73828,3.21679 L 133,556 Z m -5.73828,3.21679 -11.14063,0.69727 c 0.002,0.002 0.005,0.004 0.008,0.006 1.22251,1.13722 2.38304,2.33789 3.50391,3.57422 z M 129.71484,549.42773 124,548 v 5 z M 142.75391,536.21289 137,534 l 3,4 2,3 2,-2 -1,-2 z M 131.5,524.5 133,523 l -2,1 z M 112,522 l 2,7 h 2 l 2.8125,0.625 L 119,529 l 2,-1 -3,-5 -2,1 -2,-2 z m 6.8125,7.625 -1.25781,4.19336 -7.9043,-6.46875 L 108,529 l 3,2 -2,1 -2,-1 7,6 -2,2 3,1 v 10 l 8,4 -3,-11 7,-2 -3,-8 1,-2 z M 115,550 l -4,-2 h -4 l -0.87109,0.6543 c 0.32196,0.0473 0.64919,0.0962 1.02343,0.17187 2.96728,0.59972 5.511,2.10803 7.84766,3.93555 z M 109.65039,527.34961 111,526 h -3 z M 116,536 l -1,2 1.85742,-1.85742 L 116,539 h -3 z m 0.0801,17.64844 c 1.02465,0.86135 2.01692,1.76141 2.99023,2.66211 L 120,556 Z" />
      <path
         id="path102862"
         style="fill:none"
         d="m 209.22266,588.30664 0.0156,0.0156 c 0.0332,0.004 0.0664,0.009 0.0996,0.0137 z" />
      <path
         id="path102866"
         style="fill:none"
         d="m 212,574 -2,1 -2,2 -0.47656,5.71484 L 203,580 h -3 l -5.48242,2.74219 c 1.26077,0.16977 2.51408,0.41086 3.7539,0.68554 1.42137,0.30446 2.82386,0.69046 4.20313,1.14844 0.10252,0.0319 0.20606,0.0638 0.30859,0.0957 2.86869,0.89107 4.95759,2.18825 6.41407,3.64648 0.50376,0.0648 1.00723,0.13027 1.51171,0.18945 1.27459,0.14579 2.55671,0.21619 3.8379,0.27149 1.19759,0.0252 2.39107,0.0635 3.58203,0.20312 3.78268,0.44347 6.50606,1.74768 8.23242,3.42383 2.34598,0.0257 4.69301,0.0426 7.03906,0.0586 3.55636,0.0243 6.26648,0.88277 8.16211,2.17578 1.86869,0.27727 3.43604,0.80732 4.71289,1.50977 0.61821,-0.43914 1.22754,-0.8903 1.80273,-1.38672 0.57255,-0.49397 1.14091,-0.93387 1.70313,-1.32617 0.29209,-1.08708 0.75776,-2.24159 1.44922,-3.46289 0.20651,-0.36471 0.13226,-0.86016 0.2832,-1.23242 0.23519,-1.15855 0.50565,-2.50921 0.73438,-3.56055 0.12664,-0.58212 0.27771,-1.12873 0.4375,-1.66016 -0.29384,-1.17121 -0.48108,-2.48237 -0.53125,-3.93945 -0.0304,-0.88559 -0.0139,-0.43344 -0.0508,-1.35742 -0.002,-0.0423 -0.004,-0.0847 -0.006,-0.12695 -1.29079,-0.30832 -2.66905,-0.81117 -4.12696,-1.56446 -0.74629,-0.3856 -0.34897,-0.18667 -1.19531,-0.59375 -0.39494,-0.1823 -0.78936,-0.36624 -1.18359,-0.55078 L 246,576 l -1,2 h -4 v -2 l -0.5918,-1.18164 c -0.46015,0.0524 -0.9072,0.0846 -1.33984,0.0977 -1.91763,1.44118 -4.77306,2.4082 -8.58984,2.4082 h -1.06446 c -3.71163,0 -6.50975,-0.91571 -8.42578,-2.29102 -0.87088,0.0367 -1.79636,0.015 -2.78125,-0.0801 -0.6623,-0.0639 -1.31993,-0.15763 -1.97656,-0.26171 L 216,575 Z m 31.86719,0.60352 L 244,575 l 0.26562,-0.2207 c -0.13214,-0.0593 -0.26554,-0.11779 -0.39843,-0.17578 z M 193,581 l -1.05273,1.05273 c 0.20547,0.16069 0.3727,0.32739 0.56445,0.49024 0.43865,0.0226 0.87608,0.058 1.3125,0.10547 z" />
      <path
         id="path102880"
         style="fill:none"
         d="m 175,572 -0.65039,0.0644 c 0.41843,0.2695 0.83568,0.54001 1.25,0.81641 0.57943,0.38655 1.11166,0.78306 1.60351,1.18555 0.21528,0.064 0.42835,0.13987 0.64258,0.20898 z m 25,11 -1.13086,0.56445 c 1.21149,0.27995 2.40967,0.61449 3.58984,1.00586 L 218,587 202,584 Z" />
      <path
         id="path103012"
         style="fill:none"
         d="m 201.60742,568.66406 c -1.19514,0.27377 -2.4129,0.39236 -3.63476,0.46485 -0.0684,0.005 -0.13671,0.005 -0.20508,0.01 l 3.25976,14.99024 c 0.48469,0.14135 0.96801,0.28813 1.44727,0.44726 0.10252,0.0319 0.20606,0.0638 0.30859,0.0957 2.87558,0.89344 4.99049,2.18784 6.44727,3.65039 0.49271,0.0634 0.9851,0.12766 1.47851,0.18554 1.27459,0.14579 2.55671,0.21619 3.8379,0.27149 1.19782,0.0252 2.39107,0.0635 3.58203,0.20312 0.5687,0.0667 1.10588,0.15785 1.62695,0.26172 L 221,588 l 2,1 5,-2 1,-3 7,-1 5.56836,-8.35156 c -0.88013,0.15772 -1.71646,0.24397 -2.50586,0.26758 -1.91748,1.44057 -4.76854,2.4082 -8.58398,2.4082 h -1.06446 c -3.71177,0 -6.50981,-0.91576 -8.42578,-2.29102 -0.87088,0.0367 -1.79636,0.015 -2.78125,-0.0801 -1.89224,-0.18255 -3.75979,-0.5531 -5.61133,-0.9746 -0.35865,-0.0864 -0.71364,-0.18628 -1.0664,-0.29102 -4.57605,-0.46446 -7.57623,-2.27444 -9.06055,-4.50586 -0.28845,-0.19642 -0.57994,-0.36941 -0.86133,-0.51758 z" />
      <path
         id="path103014"
         style="fill:none"
         d="m 180,565 3,2.57227 1.10938,-0.95118 c -0.41095,-0.2045 -0.80137,-0.41736 -1.16993,-0.64062 z m 3,2.57227 -4,3.42773 7.23242,-0.6582 z m 3.23242,2.76953 L 187,571 l 3,1 h 3 l -3,-2 z m 7.5332,-1.26758 L 194,572 l 2,1 1,-2 1.5,1.5 0.5,-1.5 -0.38477,-1.92578 c -0.21437,0.0162 -0.42784,0.042 -0.64257,0.0547 -1.40368,0.11049 -2.80619,0.0454 -4.20704,-0.0547 z M 198.5,572.5 198,574 h 2 z" />
      <path
         id="path103026"
         style="fill:none"
         d="M 185.05859,567.05859 185.5,567.5 l 0.17969,-0.17969 c -0.043,-0.0169 -0.0859,-0.0338 -0.12891,-0.0508 -0.17039,-0.0671 -0.32782,-0.14078 -0.49219,-0.21094 z M 185.5,567.5 185,568 l 2,1 z" />
      <path
         id="path103028"
         style="fill:none"
         d="m 149,533 v 2 l 3.63672,4.54492 L 153,539 Z m 3.63672,6.54492 L 151,542 l 1.375,0.34375 c 0.0865,-0.84525 0.30991,-1.62926 0.6582,-2.32813 L 153,540 Z M 149,543 l 3.92188,3.26758 c -0.41629,-1.14454 -0.60161,-2.2446 -0.58594,-3.26758 z m 11,16 v 2 l 0.85742,0.57227 L 160,562 l 1.52344,1.52344 c 0.79098,0.44611 1.59826,0.9752 2.41797,1.60937 0.0195,0.0151 0.0391,0.0299 0.0586,0.0449 V 564 l 4.06445,4.06445 c 0.081,0.0549 0.16121,0.11111 0.24219,0.16602 1.15259,0.78854 2.33731,1.52581 3.5293,2.25195 l -3.41016,-10.7168 z m 8.42578,0.76562 1.42774,0.13086 c -0.0755,-0.0252 -0.15263,-0.0538 -0.22852,-0.0801 -0.41139,-0.0578 -0.8306,-0.13608 -1.26172,-0.2461 z" />
      <path
         id="path103062"
         style="fill:none"
         d="m 230,583 -0.76953,2.69141 L 230,585 v 3 l 3,-2 z m -0.76953,2.69141 -5.45313,4.9082 c 1.02321,0.52232 1.88864,1.13152 2.58399,1.80664 0.87942,0.01 1.75907,0.014 2.63867,0.0215 V 592 l -1,-2 z" />
      <path
         id="path103064"
         style="fill:none"
         d="m 164.29883,557.82812 -2.15625,6.06641 c 0.59259,0.36566 1.1913,0.76827 1.79883,1.23828 1.41171,1.09231 2.88839,2.09634 4.36523,3.09766 0.35342,0.24179 0.71579,0.46933 1.07422,0.70312 L 173,564 168.63086,559.63086 C 167.99028,559.48265 167.32801,559.27259 166.64844,559 H 166 l -0.041,-0.28906 c -0.54386,-0.24928 -1.09801,-0.54878 -1.66015,-0.88282 z" />
      <path
         id="path103098"
         style="fill:none"
         d="m 484,106 -3,1 1.87109,2.80664 L 485,110 Z m -1.12891,3.80664 L 474,109 v 2 l -7,5 h -12 l -2,-6 -6,4 -9.16406,1.14453 c 0.038,2.28271 -0.40791,4.50876 -0.99024,6.70703 -0.55935,2.02607 -1.37245,3.95301 -2.38672,5.78711 L 451.24414,122.24414 453,124 l -4,7 -1,3 3,-4 3,1 6,-2 20,-6 3,-13 z" />
      <path
         id="path103100"
         style="fill:none"
         d="m 450,122 -1.63672,5.45508 L 450,128 454.61914,127.58008 455,123 h -2 l -2,2 z m 4.61914,5.58008 -0.47656,5.70508 1.39648,2.79101 L 462,137 l 1,2 1,-6 h -3 l 2,-7 -1,-2 -1,3 z m 0.91992,8.49609 L 455,136 v 3 l 1,-2 z M 454.14258,133.28516 454,133 l -2,4 1.62891,2.44531 z m -0.51367,6.16015 L 453.33398,143 454,140 Z M 453.33398,143 452,149 l 3,1 v -3 h -2 z M 448.36328,127.45508 447,127 h -2 l -4,-1 h -3 l 9,6 z" />
      <path
         id="path103102"
         style="fill:none"
         d="m 439,114 -1.19531,0.26562 c 0.0112,0.18148 0.0223,0.36285 0.0293,0.54883 0.0903,2.39871 -0.37786,4.73278 -0.98828,7.03711 -0.57716,2.09056 -1.42259,4.07657 -2.48242,5.96289 -0.53386,0.78668 -0.65714,0.96852 -0.82812,1.17969 0.1909,1.20358 0.37582,2.40824 0.51562,3.61914 0.0756,0.59371 0.15296,1.18821 0.22656,1.7832 L 453,150 l 2,1 4,-12 v -5 l -4,-4 -4,1 -1.85742,-1.85742 L 450,124 l 2,-3 2,1 -11,-8 z m 20,20 4,4 -2,2 3.33398,-1.33398 L 464,138 464.48828,136.86133 459,130 Z m 5.48828,2.86133 1.05664,1.32031 -1.21094,0.48438 L 465,140 465.76953,138.46094 467,140 v -9 z" />
      <path
         id="path103104"
         style="fill:none"
         d="m 475,108 -2,1 v 2 l -0.41016,0.90234 L 475,110 Z m -2.41016,3.90234 -13.00586,10.26758 L 459,121 l -1,-4 -4,7 2.6543,0.48242 L 456,125 456.93359,124.5332 465,126 l 1,-2 2.59375,-0.2168 L 468,122 Z M 468.59375,123.7832 469,125 h 2 l 1.73438,-1.56055 z m 4.14063,-0.34375 L 478,123 l 1,-2 v 3 h 2 v -3 l 3,-4 1,-3 -2,3 v -4 l -2,3 z M 458,120 459.49414,122.24219 458,123.42188 Z" />
      <path
         id="path103106"
         style="fill:none"
         d="M 474,64 470.80078,68.800781 470,68 l 0.57227,1.142578 -0.26368,0.396484 L 468,68 l -1,2 -2,3 v 5 l -2,3 -1.9082,-1.908203 L 463,88 l -5,-1 6,5 10,-19 1,-2 z m -10,28 -9,17.09961 V 109 l -1,-3 -3,4 v 3.5 l 3,1.5 h 8.33398 l 1,3 H 461 v 2 l 0.5,0.5 2,-2 1.5,4.5 1,-2 -1,-3 h -1 v -3 h 3 L 465.66602,112.33398 464,114 v -1 l -1,-10 1,-4 z m 1.66602,20.33398 L 466,112 v -2 l -1,-2 v 3 z M 461.5,120.5 460,122 h -4 v 1 l 7,1 v -2 z m -10.5,-7 -1,-0.5 -2,1 v 2 h 3 z M 461.0918,79.091797 460.1543,74.71875 458,74 l 2,4 z M 460.1543,74.71875 461,75 463.09961,68 H 462 l -4,3 -2,-4 -5,-2 9,9 z M 463.09961,68 H 464 v -3 z" />
    </g>
  </g>
</svg>
